# xmcd
#
# Track frame offsets: 
#        150
#        33746
#        52964
#        70244
#        89344
#        121910
#        143741
#        157940
#        182845
#        204991
#        229984
#        266688
#        289298
#        321808
#
# Disc length: 4662 seconds
#
# Revision: 0
# Processed by: cddbd v1.5.2PL0 Copyright (c) Steve Scherf et al.
# Submitted via: ExactAudioCopy v0.99pb4
#
DISCID=cb12340e
DTITLE=OHIO PLAYERS - ANGEL and JASS-AY-LAY-DEE
DYEAR=1977
DGENRE=Funk
TTITLE0=Angel
TTITLE1=Merry-Go-Round
TTITLE2=Glad To Know You're Mine
TTITLE3=Don't Fight My Love
TTITLE4=Body Vibes
TTITLE5=Can You Still Love Me?
TTITLE6=O-H-I-O
TTITLE7=Faith
TTITLE8=Funk-O-Nots
TTITLE9=Sleepwalkin'
TTITLE10=Jass-Ay-Lay-Dee
TTITLE11=Nott Enuff
TTITLE12=Time Slips Away - Shoot Yer Shot
TTITLE13=Dance (If Ya Wanta)
EXTD=
EXTT0=
EXTT1=
EXTT2=
EXTT3=
EXTT4=
EXTT5=
EXTT6=
EXTT7=
EXTT8=
EXTT9=
EXTT10=
EXTT11=
EXTT12=
EXTT13=
PLAYORDER=
